<svg width="487" height="90" viewBox="0 0 487 90" fill="none" xmlns="http://www.w3.org/2000/svg">
<rect width="487" height="90" fill="url(#paint0_linear_4152_484)"/>
<path d="M64.7514 45.9068C65.4083 45.3489 65.7407 44.5022 65.7407 43.3921C65.7407 41.348 64.5685 40.1758 62.5244 40.1758H55.8535V49.8191H57.4617V41.784H62.5244C63.6816 41.784 64.1326 42.2349 64.1326 43.3921C64.1326 44.5494 63.6816 45.0003 62.5244 45.0003H59.2171L63.7944 49.8191H65.8661L62.8476 46.5982C63.6287 46.5487 64.2683 46.3163 64.7514 45.9056V45.9068Z" fill="white"/>
<path d="M72.2414 40.0674H72.238C70.1501 40.0674 68.6615 40.7024 67.8114 41.9516C67.112 42.9812 67.0315 44.1845 67.0315 45.0001C67.0315 45.8157 67.112 47.0189 67.8114 48.0485C68.6604 49.2978 70.1501 49.9316 72.238 49.9327C72.2391 49.9327 72.2403 49.9327 72.2414 49.9327C74.3304 49.9327 75.8213 49.3001 76.6725 48.0519C77.3766 47.0201 77.4582 45.8168 77.4582 45.0001C77.4582 44.1833 77.3766 42.9801 76.6725 41.9482C75.8201 40.7001 74.3293 40.0674 72.2403 40.0674H72.2414ZM75.345 47.1443C74.8113 47.9265 73.7668 48.3234 72.2414 48.3234H72.238C70.7149 48.3234 69.6727 47.9254 69.1412 47.1432C68.696 46.4886 68.6385 45.6535 68.6385 44.9989C68.6385 44.3444 68.696 43.5092 69.1412 42.8547C69.6727 42.0724 70.7149 41.6756 72.238 41.6744H72.2403C73.7656 41.6744 74.8101 42.0713 75.3439 42.8535C75.7914 43.5104 75.8489 44.3444 75.8489 44.9989C75.8489 45.6535 75.7914 46.4875 75.3439 47.1443H75.345Z" fill="white"/>
<path d="M131.888 44.7786C131.345 44.4036 130.606 44.2138 129.691 44.2138H126.596C125.041 44.2138 124.911 43.5823 124.911 42.991C124.911 42.3997 125.041 41.7682 126.596 41.7682H132.494V40.1934H126.596C125.682 40.1934 124.942 40.3832 124.399 40.7582C123.914 41.0941 123.335 41.7532 123.335 42.991C123.335 44.2288 123.914 44.8879 124.399 45.2238C124.942 45.5988 125.681 45.7886 126.596 45.7886H129.691C130.272 45.7886 130.721 45.8876 130.992 46.0739C131.157 46.1878 131.376 46.4098 131.376 47.0114C131.376 47.6131 131.246 48.2343 129.691 48.2343H123.732V49.8091H129.691C130.605 49.8091 131.345 49.6193 131.888 49.2443C132.373 48.9084 132.952 48.2492 132.952 47.0114C132.952 45.7737 132.373 45.1145 131.888 44.7786Z" fill="white"/>
<path d="M103.485 45.7981H109.327V44.1899H103.485V41.7776H110.721V40.1694H101.876V49.8185H110.735V48.2103H103.485V45.7981Z" fill="white"/>
<path d="M136.587 45.7981H142.431V44.1899H136.587V41.7776H143.825V40.1694H134.979V49.8185H143.838V48.2103H136.587V45.7981Z" fill="white"/>
<path d="M112.169 41.7604H116.189V49.8243H117.798V41.7604H121.819V40.1855H112.169V41.7604Z" fill="white"/>
<path d="M166.662 40.1855H157.011V41.7604H161.033V49.8243H162.641V41.7604H166.662V40.1855Z" fill="white"/>
<path d="M100.199 40.1912H98.1735L94.1001 44.9996L98.1781 49.8184H100.216L96.2006 44.9985L100.199 40.1912Z" fill="white"/>
<path d="M92.2873 40.1694H90.5986V49.8185H92.2873V40.1694Z" fill="white"/>
<path d="M152.535 40.1792H148.676C147.083 40.1792 145.787 41.4745 145.787 43.0677V49.8225H147.383V46.5061H153.839V49.8225H155.413V45.8308C155.419 45.7906 155.424 45.7503 155.424 45.7089V43.0677C155.424 41.4745 154.129 40.1792 152.535 40.1792ZM153.828 44.9106H147.383V43.0677C147.383 42.3545 147.963 41.7747 148.676 41.7747H152.535C153.248 41.7747 153.828 42.3545 153.828 43.0677V44.9106Z" fill="white"/>
<path d="M79.0767 43.0697V46.9291C79.0767 48.5223 80.3719 49.8176 81.9652 49.8176H88.72V48.2221H81.9652C81.252 48.2221 80.6722 47.6423 80.6722 46.9291V43.0697C80.6722 42.3565 81.252 41.7767 81.9652 41.7767H88.72V40.1812H81.9652C80.3719 40.1812 79.0767 41.4764 79.0767 43.0697Z" fill="white"/>
<path d="M42.2553 48.8166C38.5133 52.0134 35.856 52.2389 34.4951 50.8769C33.2412 49.623 34.2811 46.478 36.8153 43.3721L32 38.5579H35.0772L39.8603 43.341C36.8418 46.3779 35.0818 49.6115 35.9917 50.5215C36.7452 51.2761 39.0643 50.2304 41.5663 48.1276L42.2553 48.8166Z" fill="white"/>
<path d="M51.0336 51.4416H47.9564L43.1733 46.6585C46.1918 43.6227 47.9518 40.388 47.043 39.4792C46.2896 38.7246 43.9682 39.7714 41.4662 41.8742L40.7771 41.1852C44.5203 37.9872 47.1788 37.7606 48.5396 39.1226C49.7935 40.3765 48.7547 43.5215 46.2194 46.6275L51.0347 51.4416H51.0336Z" fill="white"/>
<g filter="url(#filter0_d_4152_484)">
<rect x="244" y="24" width="211" height="42" rx="5" fill="white" shape-rendering="crispEdges"/>
<path d="M265.394 49.144C264.754 49.144 264.162 49.028 263.618 48.796C263.082 48.564 262.61 48.24 262.202 47.824C261.802 47.408 261.49 46.92 261.266 46.36C261.042 45.8 260.93 45.188 260.93 44.524C260.93 43.86 261.038 43.248 261.254 42.688C261.478 42.12 261.79 41.632 262.19 41.224C262.598 40.808 263.074 40.488 263.618 40.264C264.162 40.032 264.754 39.916 265.394 39.916C266.034 39.916 266.606 40.024 267.11 40.24C267.622 40.456 268.054 40.744 268.406 41.104C268.758 41.456 269.01 41.844 269.162 42.268L267.698 42.952C267.53 42.504 267.246 42.136 266.846 41.848C266.446 41.552 265.962 41.404 265.394 41.404C264.834 41.404 264.338 41.536 263.906 41.8C263.482 42.064 263.15 42.428 262.91 42.892C262.678 43.356 262.562 43.9 262.562 44.524C262.562 45.148 262.678 45.696 262.91 46.168C263.15 46.632 263.482 46.996 263.906 47.26C264.338 47.524 264.834 47.656 265.394 47.656C265.962 47.656 266.446 47.512 266.846 47.224C267.246 46.928 267.53 46.556 267.698 46.108L269.162 46.792C269.01 47.216 268.758 47.608 268.406 47.968C268.054 48.32 267.622 48.604 267.11 48.82C266.606 49.036 266.034 49.144 265.394 49.144ZM274.891 49.144C274.235 49.144 273.623 49.028 273.055 48.796C272.487 48.564 271.991 48.24 271.567 47.824C271.143 47.408 270.811 46.92 270.571 46.36C270.339 45.792 270.223 45.18 270.223 44.524C270.223 43.86 270.339 43.248 270.571 42.688C270.803 42.128 271.131 41.64 271.555 41.224C271.979 40.808 272.475 40.488 273.043 40.264C273.611 40.032 274.227 39.916 274.891 39.916C275.555 39.916 276.171 40.032 276.739 40.264C277.307 40.496 277.803 40.82 278.227 41.236C278.651 41.644 278.979 42.128 279.211 42.688C279.451 43.248 279.571 43.86 279.571 44.524C279.571 45.18 279.451 45.792 279.211 46.36C278.971 46.92 278.639 47.408 278.215 47.824C277.791 48.24 277.295 48.564 276.727 48.796C276.167 49.028 275.555 49.144 274.891 49.144ZM274.891 47.656C275.331 47.656 275.735 47.58 276.103 47.428C276.471 47.268 276.791 47.048 277.063 46.768C277.343 46.488 277.555 46.156 277.699 45.772C277.851 45.388 277.927 44.972 277.927 44.524C277.927 44.076 277.851 43.664 277.699 43.288C277.555 42.904 277.343 42.572 277.063 42.292C276.791 42.004 276.471 41.784 276.103 41.632C275.735 41.48 275.331 41.404 274.891 41.404C274.459 41.404 274.059 41.48 273.691 41.632C273.323 41.784 272.999 42.004 272.719 42.292C272.447 42.572 272.235 42.904 272.083 43.288C271.931 43.664 271.855 44.076 271.855 44.524C271.855 44.972 271.931 45.388 272.083 45.772C272.235 46.156 272.447 46.488 272.719 46.768C272.999 47.048 273.323 47.268 273.691 47.428C274.059 47.58 274.459 47.656 274.891 47.656ZM281.022 49V40.06H282.294L287.214 46.684L286.554 46.816V40.06H288.186V49H286.902L282.054 42.328L282.654 42.196V49H281.022ZM289.917 49V40.06H291.549V43.96H295.353V40.06H296.997V49H295.353V45.4H291.549V49H289.917ZM298.718 49V40.06H304.658V41.5H300.35V43.792H304.418V45.232H300.35V47.56H304.658V49H298.718ZM310.054 49.144C309.414 49.144 308.822 49.028 308.278 48.796C307.742 48.564 307.27 48.24 306.862 47.824C306.462 47.408 306.15 46.92 305.926 46.36C305.702 45.8 305.59 45.188 305.59 44.524C305.59 43.86 305.698 43.248 305.914 42.688C306.138 42.12 306.45 41.632 306.85 41.224C307.258 40.808 307.734 40.488 308.278 40.264C308.822 40.032 309.414 39.916 310.054 39.916C310.694 39.916 311.266 40.024 311.77 40.24C312.282 40.456 312.714 40.744 313.066 41.104C313.418 41.456 313.67 41.844 313.822 42.268L312.358 42.952C312.19 42.504 311.906 42.136 311.506 41.848C311.106 41.552 310.622 41.404 310.054 41.404C309.494 41.404 308.998 41.536 308.566 41.8C308.142 42.064 307.81 42.428 307.57 42.892C307.338 43.356 307.222 43.9 307.222 44.524C307.222 45.148 307.338 45.696 307.57 46.168C307.81 46.632 308.142 46.996 308.566 47.26C308.998 47.524 309.494 47.656 310.054 47.656C310.622 47.656 311.106 47.512 311.506 47.224C311.906 46.928 312.19 46.556 312.358 46.108L313.822 46.792C313.67 47.216 313.418 47.608 313.066 47.968C312.714 48.32 312.282 48.604 311.77 48.82C311.266 49.036 310.694 49.144 310.054 49.144ZM310.174 51.844C309.966 51.844 309.73 51.808 309.466 51.736C309.21 51.672 308.994 51.576 308.818 51.448L309.154 50.548C309.274 50.628 309.406 50.688 309.55 50.728C309.694 50.776 309.834 50.8 309.97 50.8C310.146 50.8 310.282 50.764 310.378 50.692C310.474 50.62 310.522 50.52 310.522 50.392C310.522 50.24 310.426 50.116 310.234 50.02C310.042 49.932 309.762 49.868 309.394 49.828L309.646 48.88H310.57L310.462 49.36C310.878 49.416 311.206 49.544 311.446 49.744C311.686 49.952 311.806 50.208 311.806 50.512C311.806 50.92 311.658 51.244 311.362 51.484C311.066 51.724 310.67 51.844 310.174 51.844ZM314.415 49L317.499 40.06H319.611L322.695 49H320.919L320.283 47.08H316.827L316.179 49H314.415ZM317.295 45.64H319.815L318.327 41.188H318.783L317.295 45.64ZM325.091 49L328.175 40.06H330.287L333.371 49H331.595L330.959 47.08H327.503L326.855 49H325.091ZM327.971 45.64H330.491L329.003 41.188H329.459L327.971 45.64ZM338.632 49V40.06H341.956C342.564 40.06 343.1 40.172 343.564 40.396C344.036 40.612 344.404 40.932 344.668 41.356C344.932 41.772 345.064 42.28 345.064 42.88C345.064 43.496 344.916 44.02 344.62 44.452C344.332 44.884 343.94 45.204 343.444 45.412L345.496 49H343.648L341.452 45.076L342.508 45.7H340.264V49H338.632ZM340.264 44.26H341.98C342.276 44.26 342.532 44.204 342.748 44.092C342.964 43.972 343.132 43.808 343.252 43.6C343.372 43.392 343.432 43.152 343.432 42.88C343.432 42.6 343.372 42.36 343.252 42.16C343.132 41.952 342.964 41.792 342.748 41.68C342.532 41.56 342.276 41.5 341.98 41.5H340.264V44.26ZM350.969 49.144C350.313 49.144 349.701 49.028 349.133 48.796C348.565 48.564 348.069 48.24 347.645 47.824C347.221 47.408 346.889 46.92 346.649 46.36C346.417 45.792 346.301 45.18 346.301 44.524C346.301 43.86 346.417 43.248 346.649 42.688C346.881 42.128 347.209 41.64 347.633 41.224C348.057 40.808 348.553 40.488 349.121 40.264C349.689 40.032 350.305 39.916 350.969 39.916C351.633 39.916 352.249 40.032 352.817 40.264C353.385 40.496 353.881 40.82 354.305 41.236C354.729 41.644 355.057 42.128 355.289 42.688C355.529 43.248 355.649 43.86 355.649 44.524C355.649 45.18 355.529 45.792 355.289 46.36C355.049 46.92 354.717 47.408 354.293 47.824C353.869 48.24 353.373 48.564 352.805 48.796C352.245 49.028 351.633 49.144 350.969 49.144ZM350.969 47.656C351.409 47.656 351.813 47.58 352.181 47.428C352.549 47.268 352.869 47.048 353.141 46.768C353.421 46.488 353.633 46.156 353.777 45.772C353.929 45.388 354.005 44.972 354.005 44.524C354.005 44.076 353.929 43.664 353.777 43.288C353.633 42.904 353.421 42.572 353.141 42.292C352.869 42.004 352.549 41.784 352.181 41.632C351.813 41.48 351.409 41.404 350.969 41.404C350.537 41.404 350.137 41.48 349.769 41.632C349.401 41.784 349.077 42.004 348.797 42.292C348.525 42.572 348.313 42.904 348.161 43.288C348.009 43.664 347.933 44.076 347.933 44.524C347.933 44.972 348.009 45.388 348.161 45.772C348.313 46.156 348.525 46.488 348.797 46.768C349.077 47.048 349.401 47.268 349.769 47.428C350.137 47.58 350.537 47.656 350.969 47.656ZM361.3 49.144C360.66 49.144 360.068 49.028 359.524 48.796C358.988 48.564 358.516 48.24 358.108 47.824C357.708 47.408 357.396 46.92 357.172 46.36C356.948 45.8 356.836 45.188 356.836 44.524C356.836 43.86 356.944 43.248 357.16 42.688C357.384 42.12 357.696 41.632 358.096 41.224C358.504 40.808 358.98 40.488 359.524 40.264C360.068 40.032 360.66 39.916 361.3 39.916C361.94 39.916 362.512 40.024 363.016 40.24C363.528 40.456 363.96 40.744 364.312 41.104C364.664 41.456 364.916 41.844 365.068 42.268L363.604 42.952C363.436 42.504 363.152 42.136 362.752 41.848C362.352 41.552 361.868 41.404 361.3 41.404C360.74 41.404 360.244 41.536 359.812 41.8C359.388 42.064 359.056 42.428 358.816 42.892C358.584 43.356 358.468 43.9 358.468 44.524C358.468 45.148 358.584 45.696 358.816 46.168C359.056 46.632 359.388 46.996 359.812 47.26C360.244 47.524 360.74 47.656 361.3 47.656C361.868 47.656 362.352 47.512 362.752 47.224C363.152 46.928 363.436 46.556 363.604 46.108L365.068 46.792C364.916 47.216 364.664 47.608 364.312 47.968C363.96 48.32 363.528 48.604 363.016 48.82C362.512 49.036 361.94 49.144 361.3 49.144ZM366.393 49V40.06H368.025V44.716L367.581 44.56L371.385 40.06H373.437L369.873 44.284L369.969 43.132L373.545 49H371.625L369.225 45.064L368.025 46.492V49H366.393ZM374.538 49V40.06H380.478V41.5H376.17V43.792H380.238V45.232H376.17V47.56H380.478V49H374.538ZM383.259 49V41.5H380.943V40.06H387.183V41.5H384.903V49H383.259ZM391.37 49.144C390.802 49.144 390.274 49.04 389.786 48.832C389.306 48.624 388.89 48.336 388.538 47.968C388.194 47.592 387.942 47.156 387.782 46.66L389.138 46.072C389.354 46.584 389.666 46.988 390.074 47.284C390.482 47.572 390.942 47.716 391.454 47.716C391.742 47.716 391.99 47.672 392.198 47.584C392.414 47.488 392.578 47.36 392.69 47.2C392.81 47.04 392.87 46.848 392.87 46.624C392.87 46.36 392.79 46.144 392.63 45.976C392.478 45.8 392.246 45.664 391.934 45.568L390.218 45.016C389.522 44.8 388.998 44.476 388.646 44.044C388.294 43.612 388.118 43.104 388.118 42.52C388.118 42.008 388.242 41.556 388.49 41.164C388.746 40.772 389.098 40.468 389.546 40.252C390.002 40.028 390.522 39.916 391.106 39.916C391.642 39.916 392.134 40.012 392.582 40.204C393.03 40.388 393.414 40.648 393.734 40.984C394.062 41.312 394.306 41.7 394.466 42.148L393.122 42.748C392.946 42.3 392.682 41.956 392.33 41.716C391.978 41.468 391.57 41.344 391.106 41.344C390.834 41.344 390.594 41.392 390.386 41.488C390.178 41.576 390.014 41.704 389.894 41.872C389.782 42.032 389.726 42.224 389.726 42.448C389.726 42.696 389.806 42.916 389.966 43.108C390.126 43.292 390.37 43.436 390.698 43.54L392.342 44.056C393.054 44.288 393.586 44.608 393.938 45.016C394.298 45.424 394.478 45.928 394.478 46.528C394.478 47.04 394.346 47.492 394.082 47.884C393.818 48.276 393.454 48.584 392.99 48.808C392.526 49.032 391.986 49.144 391.37 49.144ZM395.948 49V40.06H401.888V41.5H397.58V43.792H401.648V45.232H397.58V47.56H401.888V49H395.948ZM402.353 49L405.437 40.06H407.549L410.633 49H408.857L408.221 47.08H404.765L404.117 49H402.353ZM405.233 45.64H407.753L406.265 41.188H406.721L405.233 45.64ZM412.614 49V41.5H410.298V40.06H416.538V41.5H414.258V49H412.614Z" fill="#320863"/>
<g clip-path="url(#clip0_4152_484)">
<path d="M425.5 49.5L434.5 40.5" stroke="#320863" stroke-width="1.5" stroke-linecap="round" stroke-linejoin="round"/>
<path d="M427.188 40.5H434.5V47.8125" stroke="#320863" stroke-width="1.5" stroke-linecap="round" stroke-linejoin="round"/>
</g>
</g>
<defs>
<filter id="filter0_d_4152_484" x="228" y="12" width="243" height="74" filterUnits="userSpaceOnUse" color-interpolation-filters="sRGB">
<feFlood flood-opacity="0" result="BackgroundImageFix"/>
<feColorMatrix in="SourceAlpha" type="matrix" values="0 0 0 0 0 0 0 0 0 0 0 0 0 0 0 0 0 0 127 0" result="hardAlpha"/>
<feOffset dy="4"/>
<feGaussianBlur stdDeviation="8"/>
<feComposite in2="hardAlpha" operator="out"/>
<feColorMatrix type="matrix" values="0 0 0 0 0 0 0 0 0 0 0 0 0 0 0 0 0 0 0.25 0"/>
<feBlend mode="normal" in2="BackgroundImageFix" result="effect1_dropShadow_4152_484"/>
<feBlend mode="normal" in="SourceGraphic" in2="effect1_dropShadow_4152_484" result="shape"/>
</filter>
<linearGradient id="paint0_linear_4152_484" x1="0" y1="45.002" x2="486.998" y2="45.002" gradientUnits="userSpaceOnUse">
<stop stop-color="#00A38B"/>
<stop offset="0.33" stop-color="#306299"/>
<stop offset="0.67" stop-color="#5F22A7"/>
<stop offset="1" stop-color="#921CC5"/>
</linearGradient>
<clipPath id="clip0_4152_484">
<rect width="18" height="18" fill="white" transform="translate(421 36)"/>
</clipPath>
</defs>
</svg>
